<?xml version="1.0" encoding="UTF-8"?>
<svg xmlns="http://www.w3.org/2000/svg" xmlns:xlink="http://www.w3.org/1999/xlink" width="50px" height="50px" viewBox="0 0 50 50" version="1.1">
<g id="surface1">
<path style=" stroke:none;fill-rule:evenodd;fill:rgb(12.54902%,45.490196%,29.019608%);fill-opacity:1;" d="M 44.96875 6.882812 L 29.140625 6.882812 L 29.140625 3.152344 L 3.125 7.167969 L 3.125 42.367188 L 29.140625 46.847656 L 29.140625 41.320312 L 44.96875 41.320312 C 45.96875 41.371094 46.820312 40.605469 46.875 39.609375 L 46.875 8.59375 C 46.820312 7.597656 45.96875 6.832031 44.96875 6.882812 Z M 45.21875 39.890625 L 29.089844 39.890625 L 29.0625 36.941406 L 32.949219 36.941406 L 32.949219 33.503906 L 29.03125 33.503906 L 29.015625 31.472656 L 32.949219 31.472656 L 32.949219 28.035156 L 28.984375 28.035156 L 28.964844 26.003906 L 32.949219 26.003906 L 32.949219 22.566406 L 28.953125 22.566406 L 28.953125 20.535156 L 32.949219 20.535156 L 32.949219 17.097656 L 28.953125 17.097656 L 28.953125 15.066406 L 32.949219 15.066406 L 32.949219 11.628906 L 28.953125 11.628906 L 28.953125 8.503906 L 45.21875 8.503906 Z M 45.21875 39.890625 "/>
<path style=" stroke:none;fill-rule:nonzero;fill:rgb(12.54902%,45.490196%,29.019608%);fill-opacity:1;" d="M 35.136719 11.625 L 41.890625 11.625 L 41.890625 15.0625 L 35.136719 15.0625 Z M 35.136719 11.625 "/>
<path style=" stroke:none;fill-rule:nonzero;fill:rgb(12.54902%,45.490196%,29.019608%);fill-opacity:1;" d="M 35.136719 17.09375 L 41.890625 17.09375 L 41.890625 20.53125 L 35.136719 20.53125 Z M 35.136719 17.09375 "/>
<path style=" stroke:none;fill-rule:nonzero;fill:rgb(12.54902%,45.490196%,29.019608%);fill-opacity:1;" d="M 35.136719 22.5625 L 41.890625 22.5625 L 41.890625 26 L 35.136719 26 Z M 35.136719 22.5625 "/>
<path style=" stroke:none;fill-rule:nonzero;fill:rgb(12.54902%,45.490196%,29.019608%);fill-opacity:1;" d="M 35.136719 28.035156 L 41.890625 28.035156 L 41.890625 31.472656 L 35.136719 31.472656 Z M 35.136719 28.035156 "/>
<path style=" stroke:none;fill-rule:nonzero;fill:rgb(12.54902%,45.490196%,29.019608%);fill-opacity:1;" d="M 35.136719 33.503906 L 41.890625 33.503906 L 41.890625 36.941406 L 35.136719 36.941406 Z M 35.136719 33.503906 "/>
<path style=" stroke:none;fill-rule:evenodd;fill:rgb(100%,100%,100%);fill-opacity:1;" d="M 9.917969 16.675781 L 13.269531 16.484375 L 15.378906 22.28125 L 17.867188 16.246094 L 21.222656 16.054688 L 17.148438 24.28125 L 21.222656 32.53125 L 17.675781 32.289062 L 15.28125 26.003906 L 12.886719 32.050781 L 9.628906 31.765625 L 13.414062 24.476562 Z M 9.917969 16.675781 "/>
</g>
</svg>
