<?xml version="1.0" encoding="UTF-8"?>
<svg xmlns="http://www.w3.org/2000/svg" xmlns:xlink="http://www.w3.org/1999/xlink" width="50px" height="50px" viewBox="0 0 50 50" version="1.1">
<g id="surface1">
<path style=" stroke:none;fill-rule:nonzero;fill:rgb(100%,17.647059%,12.54902%);fill-opacity:1;" d="M 49.214844 11.292969 C 49.234375 11.359375 49.242188 11.425781 49.242188 11.496094 L 49.242188 22.210938 C 49.242188 22.488281 49.09375 22.746094 48.851562 22.886719 L 39.859375 28.0625 L 39.859375 38.324219 C 39.859375 38.605469 39.710938 38.863281 39.46875 39.003906 L 20.695312 49.808594 C 20.652344 49.832031 20.605469 49.847656 20.558594 49.867188 C 20.542969 49.871094 20.527344 49.882812 20.507812 49.886719 C 20.375 49.921875 20.238281 49.921875 20.105469 49.886719 C 20.085938 49.882812 20.066406 49.871094 20.046875 49.863281 C 20.003906 49.847656 19.957031 49.832031 19.917969 49.808594 L 1.148438 39.003906 C 0.90625 38.863281 0.757812 38.605469 0.757812 38.324219 L 0.757812 6.183594 C 0.757812 6.113281 0.765625 6.046875 0.785156 5.980469 C 0.789062 5.957031 0.804688 5.9375 0.8125 5.914062 C 0.828125 5.875 0.839844 5.832031 0.863281 5.792969 C 0.875 5.769531 0.898438 5.746094 0.914062 5.722656 C 0.9375 5.691406 0.957031 5.660156 0.984375 5.632812 C 1.007812 5.609375 1.035156 5.59375 1.0625 5.574219 C 1.089844 5.550781 1.117188 5.527344 1.148438 5.507812 L 10.53125 0.105469 C 10.773438 -0.0351562 11.070312 -0.0351562 11.3125 0.105469 L 20.699219 5.507812 C 20.730469 5.527344 20.757812 5.550781 20.785156 5.574219 C 20.8125 5.59375 20.839844 5.609375 20.863281 5.632812 C 20.890625 5.660156 20.910156 5.691406 20.933594 5.722656 C 20.949219 5.746094 20.972656 5.769531 20.984375 5.792969 C 21.007812 5.832031 21.019531 5.875 21.035156 5.914062 C 21.042969 5.9375 21.058594 5.957031 21.0625 5.980469 C 21.082031 6.046875 21.089844 6.117188 21.089844 6.183594 L 21.089844 26.257812 L 28.910156 21.757812 L 28.910156 11.496094 C 28.910156 11.425781 28.917969 11.355469 28.9375 11.292969 C 28.945312 11.269531 28.957031 11.246094 28.964844 11.226562 C 28.980469 11.183594 28.992188 11.140625 29.015625 11.105469 C 29.03125 11.078125 29.050781 11.058594 29.066406 11.035156 C 29.089844 11.003906 29.109375 10.972656 29.136719 10.945312 C 29.160156 10.921875 29.1875 10.90625 29.214844 10.886719 C 29.242188 10.863281 29.269531 10.835938 29.300781 10.816406 L 38.6875 5.414062 C 38.925781 5.277344 39.226562 5.277344 39.46875 5.414062 L 48.851562 10.816406 C 48.882812 10.835938 48.910156 10.863281 48.9375 10.882812 C 48.964844 10.902344 48.992188 10.921875 49.015625 10.941406 C 49.042969 10.972656 49.0625 11.003906 49.085938 11.035156 C 49.101562 11.058594 49.125 11.078125 49.136719 11.105469 C 49.160156 11.140625 49.171875 11.183594 49.1875 11.226562 C 49.195312 11.246094 49.210938 11.269531 49.214844 11.292969 Z M 47.679688 21.757812 L 47.679688 12.847656 L 44.394531 14.738281 L 39.859375 17.351562 L 39.859375 26.257812 Z M 38.292969 37.875 L 38.292969 28.957031 L 33.832031 31.507812 L 21.089844 38.78125 L 21.089844 47.777344 Z M 2.320312 7.539062 L 2.320312 37.875 L 19.523438 47.777344 L 19.523438 38.78125 L 10.539062 33.695312 L 10.535156 33.691406 L 10.53125 33.691406 C 10.5 33.671875 10.476562 33.648438 10.445312 33.625 C 10.421875 33.605469 10.394531 33.589844 10.371094 33.570312 L 10.371094 33.566406 C 10.34375 33.542969 10.328125 33.511719 10.304688 33.484375 C 10.285156 33.457031 10.261719 33.4375 10.246094 33.410156 L 10.246094 33.40625 C 10.230469 33.375 10.21875 33.339844 10.207031 33.308594 C 10.191406 33.277344 10.175781 33.25 10.167969 33.21875 C 10.160156 33.183594 10.15625 33.144531 10.152344 33.105469 C 10.148438 33.074219 10.140625 33.046875 10.140625 33.015625 L 10.140625 12.039062 L 5.605469 9.425781 Z M 10.925781 1.683594 L 3.105469 6.183594 L 10.921875 10.683594 L 18.738281 6.183594 L 10.921875 1.683594 Z M 14.992188 29.769531 L 19.527344 27.160156 L 19.527344 7.539062 L 16.242188 9.425781 L 11.707031 12.039062 L 11.707031 31.664062 Z M 39.078125 6.996094 L 31.257812 11.496094 L 39.078125 15.996094 L 46.894531 11.496094 Z M 38.292969 17.351562 L 33.757812 14.738281 L 30.472656 12.847656 L 30.472656 21.757812 L 35.007812 24.367188 L 38.292969 26.257812 Z M 20.304688 37.425781 L 31.773438 30.882812 L 37.503906 27.609375 L 29.691406 23.113281 L 20.699219 28.289062 L 12.5 33.011719 Z M 20.304688 37.425781 "/>
</g>
</svg>
